<svg xmlns="http://www.w3.org/2000/svg" xmlns:xlink="http://www.w3.org/1999/xlink" width="52" height="50"><defs><path id="a" d="M.006 0H52v49.947H.006z"/><path id="c" d="M.006.019h32.482v6.628H.006z"/></defs><g fill="none" fill-rule="evenodd"><mask id="b" fill="#fff"><use xlink:href="#a"/></mask><path fill="#02b979" d="M51.9 27.377a20.574 20.574 0 0 0-5.908-12.474A20.395 20.395 0 0 0 35.959 9.39V6.81a3.461 3.461 0 0 0 2.62-3.354A3.458 3.458 0 0 0 35.126 0h-7.313a3.458 3.458 0 0 0-3.453 3.455 3.461 3.461 0 0 0 2.62 3.354v2.589a20.387 20.387 0 0 0-10.002 5.505 20.604 20.604 0 0 0-1.725 1.958.943.943 0 0 0-.077-.004H7.94a1.016 1.016 0 0 0 0 2.033h5.933a20.378 20.378 0 0 0-1.803 3.906H1.016a1.016 1.016 0 0 0 0 2.032h10.48a20.655 20.655 0 0 0-.505 3.907H6.5a1.016 1.016 0 0 0 0 2.032h4.524c.086 1.316.297 2.624.634 3.907h-6.58a1.016 1.016 0 0 0 0 2.032h7.228a20.407 20.407 0 0 0 4.672 7.229 20.549 20.549 0 0 0 12.48 5.913 20.556 20.556 0 0 0 13.21-3.212 1.016 1.016 0 0 0-1.11-1.703c-7.268 4.735-17.001 3.711-23.144-2.435-7.207-7.212-7.207-18.946 0-26.158s18.934-7.212 26.141 0c6.135 6.138 7.164 15.87 2.447 23.138a1.016 1.016 0 0 0 1.703 1.107A20.601 20.601 0 0 0 51.9 27.377zM26.39 3.455c0-.784.638-1.422 1.422-1.422h7.313a1.424 1.424 0 0 1 0 2.845h-7.313a1.424 1.424 0 0 1-1.422-1.423zm2.62 5.593V6.911h4.917v2.134a20.666 20.666 0 0 0-4.917.003z" mask="url(#b)"/><path fill="#02b979" d="M45.274 42.2a1.019 1.019 0 0 0-.718 1.735 1.018 1.018 0 0 0 1.436 0c.19-.19.298-.452.298-.719 0-.268-.109-.53-.298-.718a1.025 1.025 0 0 0-.718-.298zM31.485 13.653c-8.688 0-15.756 7.073-15.756 15.766s7.068 15.765 15.756 15.765S47.24 38.112 47.24 29.42c0-8.693-7.067-15.766-15.755-15.766zm0 29.499c-7.568 0-13.724-6.16-13.724-13.733s6.156-13.733 13.724-13.733c7.568 0 13.724 6.16 13.724 13.733 0 7.572-6.156 13.733-13.724 13.733z"/><path fill="#02b979" d="M37.91 21.553l-5.031 5.033a3.135 3.135 0 0 0-2.788 0l-2.251-2.252a1.015 1.015 0 1 0-1.437 1.437l2.252 2.253c-.209.42-.326.894-.326 1.395a3.16 3.16 0 0 0 3.156 3.158 3.16 3.16 0 0 0 2.83-4.553l5.03-5.034a1.017 1.017 0 0 0-1.436-1.437zm-6.425 8.991a1.126 1.126 0 0 1 0-2.25 1.126 1.126 0 0 1 0 2.25zm10.859-2.129h-.941a1.016 1.016 0 0 0 0 2.032h.941a1.016 1.016 0 0 0 0-2.032zm-20.777-.025h-.941a1.016 1.016 0 0 0 0 2.033h.94a1.016 1.016 0 0 0 0-2.033zm9.93-7.88c.561 0 1.016-.454 1.016-1.016v-.941a1.016 1.016 0 1 0-2.031 0v.941c0 .562.454 1.017 1.015 1.017z"/><g transform="translate(0 34.654)"><mask id="d" fill="#fff"><use xlink:href="#c"/></mask><path fill="#02b979" d="M31.472 3.672c-.56 0-1.015.455-1.015 1.017v.941a1.016 1.016 0 1 0 2.031 0v-.94c0-.562-.455-1.017-1.016-1.017zM1.016.019c-.267 0-.53.108-.718.297A1.025 1.025 0 0 0 0 1.035a1.02 1.02 0 0 0 1.016 1.016c.267 0 .529-.109.718-.298a1.02 1.02 0 0 0 0-1.437A1.023 1.023 0 0 0 1.016.02z" mask="url(#d)"/></g></g></svg>