<svg xmlns="http://www.w3.org/2000/svg" xmlns:xlink="http://www.w3.org/1999/xlink" width="44" height="50"><defs><path id="a" d="M.069 0H21.25v26.66H.069z"/><path id="c" d="M.006 0h43.327v41.667H.006z"/></defs><g fill="none" fill-rule="evenodd"><g transform="translate(19.583 23.333)"><mask id="b" fill="#fff"><use xlink:href="#a"/></mask><path fill="#02b979" d="M20.417 20H8.433l-1.35-2.7v-1.025a.834.834 0 0 0-.241-.592l-4.867-4.85a.833.833 0 0 1 0-1.183.832.832 0 0 1 1.183 0l2.5 2.5a.833.833 0 0 0 1.425-.592V2.5a.833.833 0 0 1 1.667 0v6.667a.833.833 0 0 0 1.667 0V7.5a.833.833 0 0 1 1.666 0v1.667a.833.833 0 0 0 1.667 0V7.5a.833.833 0 0 1 1.667 0v1.667a.833.833 0 0 0 1.666 0 .833.833 0 0 1 1.667 0V17.5a.833.833 0 0 0 1.667 0V9.167a2.5 2.5 0 0 0-3.425-2.325A2.5 2.5 0 0 0 14.583 5a2.5 2.5 0 0 0-1.666.642 2.583 2.583 0 0 0-2.5-.5V2.5a2.5 2.5 0 0 0-5 0v7.05L4.334 8.467a2.567 2.567 0 0 0-3.534 0A2.5 2.5 0 0 0 .8 12l4.617 4.617v.883c0 .13.032.259.091.375L6.567 20h-1.15a.833.833 0 0 0-.834.833v5a.833.833 0 0 0 1.667 0v-4.166h13.333V25H8.75a.833.833 0 0 0 0 1.667h11.667c.46 0 .833-.373.833-.834v-5a.833.833 0 0 0-.833-.833z" mask="url(#b)"/></g><path fill="#02b979" d="M20.833 24.167a6.607 6.607 0 0 0 .95 3.4.833.833 0 1 0 1.434-.85 4.943 4.943 0 0 1-.717-2.55 5 5 0 0 1 10 0 4.935 4.935 0 0 1-.216 1.425.836.836 0 1 0 1.6.483c.183-.62.278-1.262.283-1.908a6.666 6.666 0 1 0-13.334 0zm-15-20a.833.833 0 1 1-1.666 0 .833.833 0 0 1 1.666 0zm3.334 0a.833.833 0 1 1-1.667 0 .833.833 0 0 1 1.667 0zm3.333 0a.833.833 0 1 1-1.667 0 .833.833 0 0 1 1.667 0z"/><mask id="d" fill="#fff"><use xlink:href="#c"/></mask><path fill="#02b979" d="M17.5 3.333A.833.833 0 0 0 17.5 5h21.667a.833.833 0 0 0 0-1.667H17.5z" mask="url(#d)"/><path fill="#02b979" d="M42.5 0H.833A.833.833 0 0 0 0 .833v40c0 .46.373.834.833.834H22.5a.833.833 0 0 0 0-1.667H1.667V8.333h37.5a.833.833 0 0 0 0-1.666h-37.5v-5h40v39.166a.833.833 0 0 0 1.666 0v-40A.833.833 0 0 0 42.5 0z" mask="url(#d)"/><path fill="#02b979" d="M20.216 27.5a.833.833 0 0 0-.833-.833H5v-5h14.383a.833.833 0 1 0 0-1.667H4.167a.833.833 0 0 0-.834.833V27.5c0 .46.373.833.834.833h15.216c.46 0 .833-.373.833-.833z"/><path fill="#02b979" d="M14.167 23.333a.833.833 0 0 0 0 1.667h4.166a.833.833 0 0 0 0-1.667h-4.166zm-2.5.834a.833.833 0 1 1-1.667 0 .833.833 0 0 1 1.667 0zm-3.334 0a.833.833 0 1 1-1.666 0 .833.833 0 0 1 1.666 0zm7.5 10v-3.334A.833.833 0 0 0 15 30H4.167a.833.833 0 0 0 0 1.667h10v1.666h-10a.833.833 0 0 0 0 1.667H15c.46 0 .833-.373.833-.833zm-11.666 2.5a.833.833 0 0 0 0 1.666h6.666a.833.833 0 0 0 0-1.666H4.167zm24.166-22.5v-3.334a.833.833 0 0 0-1.666 0v3.334a.833.833 0 0 0 1.666 0zm4.759 2.258l2.5-2.5a.837.837 0 0 0-1.184-1.183l-2.5 2.5a.833.833 0 0 0 0 1.183.833.833 0 0 0 1.184 0zm-12.5-3.683a.837.837 0 0 0-1.184 1.183l2.5 2.5a.833.833 0 0 0 1.184 0 .833.833 0 0 0 0-1.183l-2.5-2.5zM5 12.5h4.167a.833.833 0 0 0 0-1.667H5A.833.833 0 0 0 5 12.5zm0 4.167h3.333a.833.833 0 0 0 0-1.667H5a.833.833 0 0 0 0 1.667z"/></g></svg>