<svg xmlns="http://www.w3.org/2000/svg" xmlns:xlink="http://www.w3.org/1999/xlink" width="43" height="50"><defs><path id="a" d="M0 .004h43v49.895H0z"/></defs><g fill="none" fill-rule="evenodd"><mask id="b" fill="#fff"><use xlink:href="#a"/></mask><path fill="#02b979" d="M42.204 11.268H31.852V2.414C31.852 1.084 30.78 0 29.463 0h-4.778a.8.8 0 0 0-.796.805c0 1.33-1.072 2.414-2.389 2.414-1.317 0-2.389-1.083-2.389-2.414A.801.801 0 0 0 18.315 0h-4.778c-1.317 0-2.389 1.084-2.389 2.414v8.854H.796a.8.8 0 0 0-.796.804v27.365a.8.8 0 0 0 .796.804h15.926v4.83h-3.981c-1.317 0-2.39 1.083-2.39 2.414v1.61a.8.8 0 0 0 .797.804h20.704a.8.8 0 0 0 .796-.804v-1.61c0-1.331-1.072-2.415-2.389-2.415h-3.981v-4.829h15.926a.8.8 0 0 0 .796-.804V12.072a.801.801 0 0 0-.796-.804zM13.537 28.974h4.778a.8.8 0 0 0 .796-.805c0-1.331 1.072-2.414 2.389-2.414 1.317 0 2.389 1.083 2.389 2.414a.8.8 0 0 0 .796.805h4.778c1.317 0 2.389-1.084 2.389-2.415V16.097h6.37v19.315H4.778V16.097h6.37v10.462c0 1.331 1.072 2.415 2.389 2.415zm-.796-26.56c0-.443.357-.804.796-.804h4.062c.37 1.834 1.978 3.219 3.901 3.219 1.923 0 3.532-1.385 3.901-3.22h4.062c.439 0 .796.362.796.805V26.56a.802.802 0 0 1-.796.805h-4.062c-.37-1.834-1.979-3.22-3.901-3.22-1.922 0-3.532 1.386-3.901 3.22h-4.062a.802.802 0 0 1-.796-.805V2.414zm18.315 45.07v.806H11.944v-.805c0-.444.358-.805.797-.805h17.518c.439 0 .797.36.797.805zM18.315 45.07h6.37v-4.829h-6.37v4.83zm23.092-6.438H1.593V12.877h9.555v1.61H3.981a.8.8 0 0 0-.796.805v20.925a.8.8 0 0 0 .796.805H39.02a.8.8 0 0 0 .796-.805V15.292a.801.801 0 0 0-.796-.805h-7.167v-1.61h9.555v25.755z" mask="url(#b)"/><path fill="#02b979" d="M20.704 8.048h1.592v-1.61h-1.592zm3.185 0h1.592v-1.61H23.89zm3.185 0h1.593v-1.61h-1.593zm-9.555 0h1.592v-1.61H17.52zm-3.186 0h1.593v-1.61h-1.593zm0 14.487h1.593V9.658h-1.593zm3.186 0h1.592V9.658H17.52zm3.185 0h1.592V9.658h-1.592zm6.37 0h1.593v-4.829h-1.593zM7.963 32.193h27.074v-1.61H7.963z"/></g></svg>