<svg xmlns="http://www.w3.org/2000/svg" xmlns:xlink="http://www.w3.org/1999/xlink" width="145" height="40"><defs><path id="a" d="M0 .56h18.117v16.114H0z"/><path id="c" d="M0 .326h18.116V16.44H0z"/><path id="e" d="M0 40h144.751V0H0z"/></defs><g fill="none" fill-rule="evenodd"><path fill="#3DD500" d="M30.115 37.685l-1.612-2.793-5.73-9.924c-.735-1.273-1.939-1.273-2.674 0l-2.52 4.367-2.8 4.85-2.022 3.5c-.735 1.273-.334 2.315.89 2.315 1.225 0 2.72-1.097 3.32-2.44 0 0 1.398-3.121 4.47-3.121 1.215 0 2.167.489 2.875 1.08a6.362 6.362 0 0 1 1.593 2.04C26.506 38.904 28 40 29.225 40c1.225 0 1.625-1.041.89-2.314"/><path fill="#9B00DD" d="M41.091 21.326H26.406c-1.47 0-2.072 1.042-1.336 2.315l2.521 4.368 2.8 4.85 2.021 3.5c.735 1.273 1.838 1.446 2.45.386.613-1.06.41-2.903-.453-4.095 0 0-2.005-2.77-.469-5.43.608-1.053 1.508-1.633 2.374-1.952 1.321-.485 2.564-.359 2.564-.359 1.463.151 3.161-.594 3.773-1.654.612-1.06-.09-1.929-1.56-1.929"/><path fill="#FBA100" d="M42.651 16.745c-.613-1.06-2.31-1.806-3.774-1.655 0 0-3.402.35-4.937-2.31-.607-1.051-.66-2.121-.502-3.03a6.39 6.39 0 0 1 .971-2.4c.861-1.191 1.066-3.034.453-4.095-.613-1.062-1.715-.887-2.45.387L30.8 6.434l-5.73 9.924c-.735 1.273-.133 2.316 1.338 2.316h14.685c1.47 0 2.172-.867 1.56-1.928"/><path fill="#00D48A" d="M29.225 0C28 0 26.506 1.098 25.905 2.44c0 0-1.397 3.122-4.469 3.122-1.215 0-2.168-.49-2.876-1.081-1.082-.901-1.593-2.041-1.593-2.041-.6-1.342-2.095-2.44-3.32-2.44-1.224 0-1.625 1.042-.89 2.315l1.613 2.793 5.73 9.925c.735 1.273 1.938 1.273 2.673 0l2.522-4.367 2.8-4.851 2.02-3.5C30.85 1.042 30.45 0 29.225 0"/><g transform="translate(0 2)"><mask id="b" fill="#fff"><use xlink:href="#a"/></mask><path fill="#FF2378" d="M17.803 14.358l-2.52-4.367-2.802-4.85-2.02-3.5C9.725.367 8.622.193 8.011 1.254c-.613 1.061-.409 2.904.453 4.096 0 0 2.004 2.77.468 5.43-.608 1.053-1.507 1.633-2.373 1.951-1.322.486-2.565.36-2.565.36-1.462-.15-3.16.593-3.773 1.654-.612 1.061.09 1.93 1.561 1.93h3.225l11.46-.002c1.47 0 2.071-1.042 1.336-2.315" mask="url(#b)"/></g><g transform="translate(0 21)"><mask id="d" fill="#fff"><use xlink:href="#c"/></mask><path fill="#00B2D7" d="M16.466.326H1.782c-1.471 0-2.173.868-1.56 1.93.612 1.06 2.31 1.804 3.773 1.653 0 0 3.402-.35 4.937 2.31.608 1.052.66 2.122.503 3.031a6.38 6.38 0 0 1-.971 2.4c-.862 1.192-1.066 3.034-.454 4.095.613 1.06 1.716.887 2.45-.387l1.613-2.793 5.73-9.924c.735-1.273.134-2.315-1.337-2.315" mask="url(#d)"/></g><path fill="#2C302F" d="M53.59 20.63h2.878c.089 2.006 1.099 3.01 3.03 3.01.978 0 1.74-.28 2.287-.838.546-.56.82-1.347.82-2.363v-4.897h-3.697v-2.706h6.669v7.622c0 1.79-.527 3.238-1.581 4.345-1.056 1.105-2.541 1.657-4.46 1.657-3.925 0-5.906-1.944-5.945-5.83"/><mask id="f" fill="#fff"><use xlink:href="#e"/></mask><path fill="#2C302F" d="M68.378 26.174h2.953V12.836h-2.953zm8.48-13.339l6.727 8.67-.191-4.192v-4.478h2.99v13.338h-2.552L77.2 17.637l.114 4.383v4.153h-3.011V12.835zm20.827 8.424l-2.286-5.412-2.307 5.412h4.593zm2.097 4.915l-.972-2.286h-6.842l-.97 2.286h-3.204l5.985-13.338h3.239l5.984 13.338h-3.22zm4.63-13.339h2.972V23.45h6.67v2.724h-9.642zm11.432 13.339h2.953V12.836h-2.953zm16.941-13.339v.077l-5.412 6.402 5.889 6.688v.171h-3.583l-4.936-5.696v5.696h-2.972V12.835h2.972v5.507l4.44-5.507zM144.75 23.43v2.744h-10.155V12.836h9.89v2.724h-6.975v2.573h6.574v2.61h-6.574v2.687z" mask="url(#f)"/></g></svg>