<svg version="1.1" id="Layer_1" xmlns="http://www.w3.org/2000/svg" x="0" y="0" viewBox="0 0 512 512" xml:space="preserve"><path d="M512 399.961c0 8.296-6.727 15.021-15.023 15.021H15.021C6.727 414.982 0 408.257 0 399.961V112.039c0-8.296 6.727-15.021 15.021-15.021h481.956c8.296 0 15.023 6.725 15.023 15.021v287.922z" fill="#e2e2e2"/><path d="M496.977 97.018H134.01c-49 114.403-9.351 248.887 96.652 317.964h266.314c8.296 0 15.023-6.725 15.023-15.021V112.039c.001-8.296-6.726-15.021-15.022-15.021z" fill="#efeded"/><path fill="#c93f3f" d="M512 230.964H281.036V97.018h-50.074v133.946H0v50.074h230.962v133.944h50.074V281.038H512z"/><path d="M281.036 97.018h-50.074v133.946H115.28a256.597 256.597 0 0 0 11.446 50.074h104.236v133.944h50.074V281.038H512v-50.074H281.036V97.018z" fill="#ed4343"/></svg>