<svg id="a02257e8-5dd7-45a0-b624-c586cf0fa49a" data-name="Layer 1" xmlns="http://www.w3.org/2000/svg" width="918.573" height="684"><circle cx="355.573" cy="328" r="328" fill="#f2f2f2"/><path d="M317.267 229.417l-6.791 54.921c8.336 16.316 17.166 34.863 25.587 54.87l15.994-82.816.809.737c-11.694-11.831-23.995-21.463-36.42-28.374zm-8.259 52.062l6.58-53.201c-13.978-7.63-28.098-11.798-41.675-11.723-.707.004-1.405.028-2.102.055 2.728 4.169 18.57 28.742 37.197 64.869zm108.699 85.69l.732.988q-3.646-11.087-8.037-21.722l-41.247 92.401-.353-.438q1.566 6.82 2.885 13.507zm-27.93-61.403l.78.88a258.753 258.753 0 0 0-36.883-48.686l-16.3 84.394q11.71 28.182 20.183 55.018zm-182.733-4.323a216.052 216.052 0 0 0 1.147 43.53l143.857 40.396c-5.212-15.42-10.821-30.012-16.402-43.391l-128.428-39.32zm3.747 60.257l-.196-1.217 145.96 38.77q-1.778-5.718-3.641-11.307L208.526 347.4l-.187-1.218q.97 7.631 2.452 15.517zm198.289-17.569l.756.94a309.002 309.002 0 0 0-18.597-37.27l-32.655 92.845q5.547 17.927 9.593 35.117zM378.364 503.34c1.49 26.511-.44 51.001-5.79 73.196 11.34-16.231 55.498-83.96 55.487-154.187zm-149.279-85.405a298.926 298.926 0 0 0 20.389 34.432l-.138-1.34 127.177 49.894a371.63 371.63 0 0 0-5.573-44.188zm78.631-135.763c-20.163-39.082-37.009-64.492-37.252-64.856l.466-.67c-20.607 1.079-36.938 12.153-48.014 30.352zm64.632 173.188c.262 1.384.532 2.773.779 4.149a369.22 369.22 0 0 1 4.993 39.865l49.226-80.223.694.986a146.38 146.38 0 0 0-4.973-36.609q-1.916-7.03-4.151-13.914zm-37.822-116.05c-8.339-19.773-17.071-38.099-25.313-54.223l-86.745-35.982-.11-1.192c-8.197 13.867-13.405 31.742-15.214 52.399z" transform="translate(-140.713 -108)" fill="#6c63ff"/><path d="M376.656 503.276l-126.245-49.528c45.298 66.024 114.843 122.669 119.286 126.258 6.593-24.505 8.408-50.532 6.96-76.73zm-6.243-49.024l.044-.081a501.537 501.537 0 0 0-13.117-52.37l-146.32-38.865q2.055 10.674 5.057 21.734a179.712 179.712 0 0 0 11.67 30.563zm193.506 6.692l-40.261 37.969c-3.986 17.883-9.015 37.8-15.29 58.58l65.14-53.583.152 1.083c-1.46-16.57-4.79-31.835-9.952-45.082zm-39.568 34.83l39-36.778c-5.899-14.79-14.115-27.007-24.62-35.61a64.08 64.08 0 0 0-1.654-1.298c-.558 4.95-4.03 33.98-12.726 73.686zm29.065 135.328l-.067 1.227q4.264-10.864 7.665-21.856l-90.703 44.859.008-.562q-3.144 6.25-6.393 12.243zm17.652-65.107l.039 1.175a258.753 258.753 0 0 0 2.646-61.021l-66.382 54.603q-8.955 29.174-19.547 55.247zM433.087 446.116a216.051 216.051 0 0 0-26.881 34.259l85.032 122.865c5.82-15.2 10.807-30.016 15.043-43.88l-73.836-112.197zm-35.547 48.799l.625-1.062 87.69 122.956q2.276-5.539 4.406-11.032l-85.346-123.319.632-1.057q-4.119 6.496-8.008 13.514zm163.925 112.941l-.017 1.206a309.003 309.003 0 0 0 9.449-40.567l-84.37 50.68q-7.16 17.346-15.01 33.166zm-125.203 103.03c-15.762 21.368-32.868 39-51.144 52.682 19.085-5.27 96.294-29.268 141.078-83.363z" transform="translate(-140.713 -108)" fill="#6c63ff"/><path d="M375.762 549.896a298.924 298.924 0 0 0-6.258 39.522l.748-1.119 66.127 119.543a371.63 371.63 0 0 0 23.892-37.588zm147.152-54.412c9.398-42.96 12.63-73.276 12.675-73.71l.786-.22c-16.56-12.313-36.2-14.2-56.338-7.247zm-60.683 174.61c-.68 1.234-1.359 2.476-2.046 3.693a369.22 369.22 0 0 1-21.582 33.888l89.082-30.39-.095 1.202a146.38 146.38 0 0 0 19.52-31.367q3.008-6.637 5.678-13.364zm44.889-113.502c6.188-20.549 11.152-40.233 15.088-57.908l-43.86-83.04.676-.989c-15.159 5.452-30.57 15.898-45.14 30.653zm-72.132 153.155L369.345 591.08c-7.223 79.743 10.21 167.727 11.344 173.325 20.708-14.668 38.706-33.557 54.299-54.658zm26.459-41.74l.086-.034a501.54 501.54 0 0 0 23.3-48.7l-87.905-123.26q-5.226 9.532-9.968 19.965a179.711 179.711 0 0 0-10.505 30.984zM227.52 462.835l10.517 54.331c12.972 12.94 27.102 27.85 41.295 44.274l-10.387-83.704.996.451c-14.778-7.638-29.454-12.996-43.406-15.728zm8.238 52.065l-10.187-52.629c-15.651-2.935-30.368-2.535-43.258 1.733-.67.222-1.327.46-1.981.702 3.882 3.121 26.544 21.594 55.426 50.195zm129.862 47.896l1.002.713q-6.894-9.417-14.358-18.174L341.598 645.96l-.47-.308q3.596 6.002 6.918 11.954zm-45.542-49.763l1.014.596a258.753 258.753 0 0 0-50.125-34.901l10.584 85.3q19.848 23.181 36.2 46.085zm-175.12 52.37a216.052 216.052 0 0 0 14.546 41.045l149.298-6.049c-9.723-13.054-19.567-25.197-29.01-36.196l-134.293 2.303zm22.188 56.149l-.562-1.097 150.796-8.245q-3.459-4.888-6.958-9.628l-149.849 6.071-.555-1.1q3.282 6.957 7.128 13.999zm183.149-77.999l1.01.66a309.002 309.002 0 0 0-29.207-29.697l-2.358 98.392q10.817 15.335 19.978 30.433z" transform="translate(-140.713 -108)" fill="#6c63ff"/><path d="M370.294 704.46c9.611 24.752 15.346 48.639 17.118 71.4 5.767-18.94 26.829-97.001 5.112-163.787zm-168.367-35.081a298.926 298.926 0 0 0 30.033 26.443l-.545-1.231 136.37 8.14a371.63 371.63 0 0 0-18.958-40.302zm32.817-153.419c-31.256-30.937-55.132-49.895-55.475-50.166l.236-.781c-19.265 7.395-31.373 22.975-36.281 43.706zm114.998 144.728c.677 1.236 1.363 2.473 2.023 3.706a369.22 369.22 0 0 1 17.07 36.37l22.02-91.511.964.723a146.38 146.38 0 0 0-16.045-33.278q-3.995-6.095-8.248-11.95zm-71.84-98.675c-14.043-16.228-28.012-30.958-40.834-43.744l-93.62-7.408-.472-1.1c-3.51 15.722-2.938 34.332 1.727 54.536z" transform="translate(-140.713 -108)" fill="#6c63ff"/><path d="M368.65 704.927l-135.372-8.081c63.488 48.79 147.136 81.164 152.47 83.204-1.303-25.343-7.622-50.657-17.098-75.123zm-21.09-44.694l.016-.09a501.54 501.54 0 0 0-28.661-45.752l-151.168 8.265q5.253 9.517 11.527 19.107a179.712 179.712 0 0 0 20.546 25.46z" transform="translate(-140.713 -108)" fill="#6c63ff"/><path d="M242.287 792s212-84 468 0" transform="translate(-140.713 -108)" fill="#2f2e41"/><path d="M396.417 727.553a66.756 66.756 0 0 0 .832 6.706s18.244 12.405 19.703-1.46c.949-9.034-1.197-13.113-2.817-14.857l-.025-.028a5.618 5.618 0 0 1-1.536-3.805v-16.337l-16.054 5.108.73 13.865c-1.08 2.883-1.095 7.188-.833 10.808z" transform="translate(-140.713 -108)" fill="#ffb9b9"/><path d="M396.417 727.553a66.756 66.756 0 0 0 .832 6.706s18.244 12.405 19.703-1.46c.949-9.034-1.197-13.113-2.817-14.857a4.359 4.359 0 0 0-4.48-.467c-2.92-1.299-6.13.869-8.786 3.67a25.797 25.797 0 0 0-4.452 6.408z" transform="translate(-140.713 -108)" opacity=".05"/><path d="M409.655 718.935s8.027-4.379 9.486 15.324 2.19 17.514 2.19 17.514 7.297 17.513-8.028 15.324-22.621-3.649-21.892-12.406c.44-5.278 1.675-12.941 2.587-18.198a26.758 26.758 0 0 1 6.868-13.89c2.663-2.804 5.87-4.966 8.789-3.668z" transform="translate(-140.713 -108)" fill="#2f2e41"/><path d="M495.384 743.982l8.366 4.035s26.135 4.012 17.846-10.871a60.393 60.393 0 0 1-5.451-14.08 93.794 93.794 0 0 1-2.894-20.88l-22.112 3.084c7.21 9.602 6.297 25.18 5.181 33.337-.451 3.288-.936 5.375-.936 5.375z" transform="translate(-140.713 -108)" fill="#ffb9b9"/><path d="M495.384 743.982l8.366 4.035s26.135 4.012 17.846-10.871a60.393 60.393 0 0 1-5.451-14.08c-5.078.976-8.94 8.285-8.94 8.285-4.095 14.215-7.778 10.662-10.885 7.256-.451 3.288-.936 5.375-.936 5.375z" transform="translate(-140.713 -108)" opacity=".05"/><path d="M507.686 732.729s6.517-12.325 13.745-7.12 3.642 12.641 27.055 19.923 7.94 22.735-6.385 21.554-44.868-6.745-44.868-6.745-7.94-22.734-4.255-23.249 8.77 16.261 14.708-4.363z" transform="translate(-140.713 -108)" fill="#2f2e41"/><path d="M541.139 764.33c9.3.767 19.08-5.477 18.393-11.945 4.444 7.304-6.806 15.577-17.431 14.701-14.326-1.18-44.868-6.745-44.868-6.745s-.374-1.07-.92-2.748c.889.162 30.714 5.575 44.826 6.738zM391.45 754.272c.84 6.564 8.122 7.944 21.853 9.906 6.984.998 9.263-2.098 9.682-5.762.457 4.693-.876 9.939-9.682 8.68-15.324-2.188-22.621-3.648-21.892-12.405l.038-.42z" transform="translate(-140.713 -108)" fill="#fff" opacity=".3"/><path d="M358.07 469.44l-2.422 36.336s-1.938 36.82 13.081 39.726 0-46.993 0-46.993v-32.944z" transform="translate(-140.713 -108)" fill="#fbbebe"/><path d="M370.667 337.18l-1.938 4.36s.485 30.522 0 32.944-6.783 21.317-6.783 23.255-4.844 58.136-5.813 61.527-5.33 14.05-1.454 15.503 11.143-4.36 14.05 0 5.33 0 5.33-1.453.968-29.068 6.782-36.82 11.143-25.192 12.112-28.584 2.422-52.322 2.906-53.291-1.937-14.05-1.937-14.05z" transform="translate(-140.713 -108)" fill="#3f3d56"/><path d="M398.282 388.534s-5.814 22.77-9.69 27.13-23.254 36.82-17.44 79.938 15.987 99.316 15.987 99.316 1.453 19.864-.484 25.193 8.72 90.111 8.72 90.111 15.019 11.628 23.255-2.907c0 0-1.938-31.49 0-34.397s0-55.23 0-55.23 1.453-130.322 9.205-124.993 31.49 95.925 31.49 95.925 10.174 34.882 9.69 37.789 8.72 39.242 8.72 39.242 8.72 50.385 12.112 51.354 24.223 1.453 26.161-3.876l-5.813-45.54s-5.814-51.839-8.72-59.106-7.752-110.459-21.802-140.98c0 0-5.33-48.932-9.205-56.2 0 0-2.274-9.983.532-19.303 0 0-67.389.41-72.718-3.466z" transform="translate(-140.713 -108)" fill="#2f2e41"/><ellipse cx="286.394" cy="138.099" rx="40.696" ry="51.596" fill="#2f2e41"/><path d="M510.679 306.658l-6.298 13.565-74.609 21.801s-51.838 15.019-57.167-9.205 20.348-26.645 20.348-26.645 9.689-6.783 21.8-13.566c4.05-2.272 5.393-5.949 5.383-9.84a20.36 20.36 0 0 0-.324-3.449 29.19 29.19 0 0 0-.97-3.885 44.53 44.53 0 0 0-4.088-8.987s31.975-12.596 31.49-5.814a19.282 19.282 0 0 0 .776 7.248 28.53 28.53 0 0 0 2.66 5.877 63.403 63.403 0 0 0 1.82 2.93 113.255 113.255 0 0 0 2.98 4.293c6.299 8.72 27.13 8.72 27.13 8.72 16.473-1.937 29.069 16.957 29.069 16.957zm77.031 77.515s34.882 25.677 41.664 25.193 46.51-2.907 37.305 6.298-50.87 3.391-50.87 3.391l-38.273-24.223z" transform="translate(-140.713 -108)" fill="#fbbebe"/><path d="M447.02 267.881a27.633 27.633 0 0 1-28.177 7.553 44.53 44.53 0 0 0-4.09-8.987s31.976-12.596 31.491-5.814a19.282 19.282 0 0 0 .776 7.248z" transform="translate(-140.713 -108)" opacity=".1"/><circle cx="286.152" cy="137.615" r="27.615" fill="#fbbebe"/><path d="M392.468 326.037s120.149-27.13 120.633-23.255 5.33 11.628 5.33 11.628l-28.1 31.975s3.392 15.503-3.391 18.894-7.752 29.068-14.05 29.553-79.937-.485-80.422-4.36 1.938-6.299 0-7.268-4.845-.968-2.422-5.813 2.422-25.193 2.422-25.193l-22.77-10.658s-3.123-9.028 2.557-10.57 20.213-4.933 20.213-4.933z" transform="translate(-140.713 -108)" fill="#3f3d56"/><path d="M514.07 313.44h4.36s13.081 8.721 16.473 16.473 15.503 17.925 18.41 20.832 42.633 30.522 42.148 34.397-11.627 7.752-12.111 12.112 4.844 6.298 1.453 6.298-24.223-12.112-31.975-16.472-23.739-16.956-25.677-20.348-15.019-9.205-16.472-11.627-24.224-13.565-24.224-13.565z" transform="translate(-140.713 -108)" fill="#3f3d56"/><circle cx="245.699" cy="106.851" r="15.503" fill="#2f2e41"/><circle cx="314.009" cy="86.503" r="15.503" fill="#2f2e41"/><ellipse cx="290.028" cy="119.689" rx="28.826" ry="17.683" fill="#2f2e41"/><path d="M449.68 273.758c-13.285 5.227-23.783 5.847-29.868 5.561a20.363 20.363 0 0 1 .324 3.45c.708.029 1.468.043 2.277.043 6.72 0 16.758-1.167 29.088-6.123z" transform="translate(-140.713 -108)" fill="#2f2e41"/><rect x="497.573" y="310" width="421" height="252" rx="21.433" fill="#3f3d56"/><path fill="#6c63ff" opacity=".3" d="M542.966 486.75h330v12h-330zm.214-31.5h330v12h-330zm271-43h59v12h-59zm-157-32h216v12h-216zm-114.214 138.5h165.213v12H542.966z"/><rect x="543.18" y="341.25" width="83" height="83" rx="10.165" fill="#6c63ff"/></svg>